HIERARCHY
ROOT root     
{
	OFFSET 0.0000 0.0000 0.0000
	CHANNELS 6 Xposition Yposition Zposition Zrotation Yrotation Xrotation
	JOINT pelvis   
	{
		OFFSET 0.0000 0.0000 0.0000
		CHANNELS 3 Zrotation Yrotation Xrotation
		JOINT thorax   
		{
			OFFSET 0.0000 23.0750 -5.0000
			CHANNELS 3 Zrotation Yrotation Xrotation
			JOINT rclavicle
			{
				OFFSET 0.0000 28.0009 0.0000
				CHANNELS 3 Zrotation Yrotation Xrotation
				JOINT rhumerus 
				{
					OFFSET -18.5725 5.5939 0.0000
					CHANNELS 3 Zrotation Yrotation Xrotation
					JOINT rradius  
					{
						OFFSET -24.8459 0.0000 0.0000
						CHANNELS 3 Zrotation Yrotation Xrotation
						JOINT rhand    
						{
							OFFSET -24.5477 0.0000 0.0000
							CHANNELS 3 Zrotation Yrotation Xrotation
							End Site
							{
								OFFSET -8.1826 0.0000 0.0000
							}
						}
					}
				}
			}
			JOINT lclavicle
			{
				OFFSET 0.0000 28.0009 0.0000
				CHANNELS 3 Zrotation Yrotation Xrotation
				JOINT lhumerus 
				{
					OFFSET 18.5725 5.5939 0.0000
					CHANNELS 3 Zrotation Yrotation Xrotation
					JOINT lradius  
					{
						OFFSET 24.8459 0.0000 0.0000
						CHANNELS 3 Zrotation Yrotation Xrotation
						JOINT lhand    
						{
							OFFSET 24.5477 0.0000 0.0000
							CHANNELS 3 Zrotation Yrotation Xrotation
							End Site
							{
								OFFSET 8.1826 0.0000 0.0000
							}
						}
					}
				}
			}
			JOINT head     
			{
				OFFSET 0.0000 35.2030 0.0000
				CHANNELS 3 Zrotation Yrotation Xrotation
				End Site
				{
					OFFSET 0.0000 11.7343 0.0000
				}
			}
		}
		JOINT rfemur   
		{
			OFFSET -8.2817 0.0000 0.0000
			CHANNELS 3 Zrotation Yrotation Xrotation
			JOINT rtibia   
			{
				OFFSET 0.0000 -43.3627 0.0000
				CHANNELS 3 Zrotation Yrotation Xrotation
				JOINT rfoot    
				{
					OFFSET 0.0000 -38.2947 0.0000
					CHANNELS 3 Zrotation Yrotation Xrotation
					JOINT rtoes    
					{
						OFFSET 0.0000 0.0000 16.6054
						CHANNELS 3 Zrotation Yrotation Xrotation
						End Site
						{
							OFFSET 0.0000 0.0000 5.5351
						}
					}
				}
			}
		}
		JOINT lfemur   
		{
			OFFSET 8.2817 0.0000 0.0000
			CHANNELS 3 Zrotation Yrotation Xrotation
			JOINT ltibia   
			{
				OFFSET 0.0000 -43.3627 0.0000
				CHANNELS 3 Zrotation Yrotation Xrotation
				JOINT lfoot    
				{
					OFFSET 0.0000 -38.2947 0.0000
					CHANNELS 3 Zrotation Yrotation Xrotation
					JOINT ltoes    
					{
						OFFSET 0.0000 0.0000 16.6054
						CHANNELS 3 Zrotation Yrotation Xrotation
						End Site
						{
							OFFSET 0.0000 0.0000 5.5351
						}
					}
				}
			}
		}
	}
}
MOTION
Frames: 17
Frame Time: .0333333
7.8564 87.643 -6.3443 3.52891 44.0915 19.0842 0 -0 0 2.46703 -14.3773 -8.71807 30.2967 -13.3801 -2.09381e-05 44.6741 -0.475741 26.9364 -0 74.1582 -0 4.8322 -0.607007 -0.0256001 -22.5627 9.80285 4.1346e-05 -30.4304 -3.51075 13.1476 1.08196e-06 -75.9474 -1.38611e-06 8.86073 0.336704 0.0261 4.75889 -14.4321 3.21045 1.64071 -12.4372 -33.6759 -0 -0 31.9133 -6.02016e-06 -8.37308 3.07025 -0.451698 -4.65356e-06 -29.8082 -8.95451 24.67 -11.9368 -0 -0 12.2247 -9.52538e-08 -0.11 4.99833 -0.00959992 6.64299e-08 -40.2289 
8.3347 87.62 -6.0669 3.61184 43.111 19.1137 0 -0 0 2.65629 -14.3765 -8.52723 30.1614 -13.3782 8.68357e-05 44.9583 -0.787431 26.3207 -0 74.2147 -0 4.25123 -0.732702 -0.0272003 -22.4626 9.86297 -3.64561e-05 -29.741 -3.8877 12.4832 -1.00696e-06 -76.3702 7.91989e-07 8.90205 0.293398 0.0228 4.1752 -14.0003 2.83389 2.24756 -12.3874 -34.1453 -0 -0 30.7664 7.62092e-06 -8.09853 2.95077 -0.419704 -1.62791e-06 -29.7895 -9.10001 24.9887 -11.5908 -0 -0 12.4498 -8.70488e-08 0.144696 5.03558 0.0126995 -2.83241e-07 -40.718 
8.8088 87.595 -5.7754 3.68585 42.1259 19.1343 0 -0 0 2.83993 -14.3759 -8.32107 30.0377 -13.3826 -6.16471e-05 45.2495 -1.06767 25.6784 -1.34632e-06 74.2886 -1.77726e-06 3.77084 -0.908701 -0.0298994 -22.3566 9.96725 -8.3619e-06 -29.1091 -4.25491 11.7652 -1.03498e-06 -76.7893 8.20118e-07 8.92139 0.2699 0.0210999 3.61061 -13.5372 2.43192 2.87238 -12.275 -34.5528 -0 -0 29.5745 -1.70381e-06 -7.77115 2.86021 -0.390205 2.45455e-07 -29.8355 -9.24065 25.3161 -11.2445 -0 -0 12.6789 4.30283e-07 0.380401 5.05199 0.0335 5.11686e-07 -41.2816 
9.2785 87.566 -5.4707 3.75518 41.1471 19.1548 0 -0 0 3.02105 -14.3808 -8.11354 29.9181 -13.3824 -8.79443e-05 45.5516 -1.34099 24.9997 -1.26402e-06 74.3911 -9.59331e-07 3.41455 -1.1126 -0.0332003 -22.24 10.0675 7.51515e-05 -28.5467 -4.54067 10.9816 1.20426e-06 -77.2211 -1.508e-06 8.91846 0.268306 0.0209004 3.06279 -13.0509 2.01295 3.50758 -12.1006 -34.8984 -0 -0 28.3366 -1.0983e-05 -7.44053 2.80868 -0.366602 8.20796e-07 -29.9104 -9.37722 25.6463 -10.9034 -0 -0 12.9119 -5.25913e-07 0.589498 5.05111 0.0518988 3.96051e-07 -41.9336 
9.7456 87.534 -5.1531 3.82471 40.1827 19.1777 0 -0 0 3.20008 -14.397 -7.90418 29.8075 -13.4006 0.000181127 45.8499 -1.57458 24.3137 -1.3688e-06 74.5141 -1.79962e-06 3.17831 -1.31985 -0.0365986 -22.1262 10.2015 6.88324e-05 -28.0333 -4.81408 10.1675 1.25119e-06 -77.6461 -1.55482e-06 8.90815 0.293403 0.0228999 2.52893 -12.5451 1.57488 4.14354 -11.8727 -35.1772 -0 -0 27.0584 5.19139e-07 -7.15417 2.80008 -0.351301 -2.07129e-06 -29.9741 -9.51134 25.9643 -10.5641 -0 -0 13.1427 6.51874e-07 0.769903 5.04512 0.067699 -4.12048e-07 -42.6769 
10.211 87.498 -4.8241 3.89742 39.2418 19.2103 0 -0 0 3.38123 -14.4287 -7.7096 29.7026 -13.4294 -2.35348e-05 46.144 -1.79488 23.6158 -9.7821e-07 74.6577 -1.28278e-06 3.06814 -1.51073 -0.0405016 -22.0109 10.3248 7.9905e-05 -27.5769 -5.01288 9.31827 -1.60676e-06 -78.0944 1.30328e-06 8.89264 0.341597 0.0265991 2.00328 -12.0316 1.12732 4.77324 -11.597 -35.3979 -0 -0 25.7474 5.37385e-06 -6.96155 2.83547 -0.346099 -4.28504e-07 -29.9966 -9.64529 26.2614 -10.2355 -0 -0 13.3744 9.80338e-08 0.917701 5.04484 0.0806998 -5.26319e-07 -43.5036 
10.675 87.457 -4.484 3.97729 38.3319 19.2598 0 -0 0 3.56851 -14.4774 -7.53545 29.602 -13.4801 -4.96703e-05 46.4213 -1.98901 22.9248 -1.40021e-06 74.8137 -1.83089e-06 3.06548 -1.66827 -0.0445985 -21.9056 10.4562 4.99898e-07 -27.163 -5.17719 8.45858 -1.17588e-06 -78.5397 9.61372e-07 8.88373 0.410698 0.0318999 1.48127 -11.5135 0.672002 5.39068 -11.2847 -35.5656 -0 -0 24.4156 8.58421e-07 -6.90163 2.90907 -0.352004 -1.84722e-07 -29.9601 -9.77892 26.5281 -9.91735 -0 -0 13.6086 9.12308e-09 1.0324 5.06433 0.0911016 -4.01357e-07 -44.3992 
11.14 87.413 -4.1338 4.06577 37.4623 19.3304 0 -0 0 3.76659 -14.5462 -7.39443 29.5055 -13.551 8.41636e-05 46.6767 -2.16982 22.2486 -0 74.9953 -0 3.15122 -1.78324 -0.0491015 -21.8142 10.5817 1.18207e-06 -26.79 -5.29279 7.59706 0 -78.9833 0 8.88497 0.493498 0.038299 0.957684 -11.0024 0.217 5.99319 -10.9483 -35.6927 -0 -0 23.0795 4.91688e-06 -7.00283 3.01135 -0.369693 1.92981e-06 -29.8599 -9.9133 26.7533 -9.61612 -0 -0 13.8465 7.41493e-07 1.1148 5.11451 0.0993998 4.10857e-07 -45.3398 
11.606 87.363 -3.7739 4.16395 36.635 19.4277 0 -0 0 3.97979 -14.6345 -7.29672 29.4114 -13.6412 0.000114072 46.9011 -2.34582 21.5935 -1.01906e-06 75.195 -1.32344e-06 3.29827 -1.85066 -0.053298 -21.739 10.6974 -1.82988e-05 -26.4556 -5.36091 6.74529 5.55952e-07 -79.4375 -1.14158e-06 8.90096 0.581603 0.0453007 0.427707 -10.5021 -0.230406 6.5783 -10.5974 -35.7907 -0 -0 21.7542 -2.04926e-06 -7.27751 3.13002 -0.399496 -1.22828e-06 -29.7081 -10.0496 26.9325 -9.33751 -0 -0 14.0923 -1.88036e-06 1.16765 5.20287 0.1059 -9.03532e-07 -46.2998 
12.075 87.309 -3.4042 4.27299 35.8556 19.5556 0 -0 0 4.21136 -14.7415 -7.24937 29.3195 -13.7516 -8.47039e-07 47.0873 -2.51957 20.9719 -1.34093e-06 75.4122 -1.03661e-06 3.47505 -1.87165 -0.0568004 -21.6847 10.8115 -3.4055e-05 -26.1577 -5.39927 5.91717 1.5605e-06 -79.8811 -1.86355e-06 8.93355 0.667098 0.0520986 -0.111399 -10.0175 -0.663213 7.14609 -10.243 -35.8709 -0 -0 20.4564 -3.74175e-06 -7.72016 3.25201 -0.440598 -1.42497e-06 -29.5261 -10.1879 27.0606 -9.08505 -0 -0 14.3499 -1.88945e-06 1.19455 5.33249 0.111001 -1.12907e-07 -47.2604 
12.548 87.251 -3.0245 4.39603 35.1247 19.7167 0 -0 0 4.45919 -14.867 -7.2601 29.228 -13.8668 -1.79539e-05 47.2382 -2.71771 20.3751 -1.0567e-06 75.6562 -1.36093e-06 3.65959 -1.85094 -0.059101 -21.6429 10.8939 2.17941e-05 -25.9094 -5.36318 5.10845 0 -80.3447 0 8.97875 0.7405 0.0581004 -0.660509 -9.55223 -1.07011 7.69615 -9.89735 -35.9457 -0 -0 19.2037 3.44991e-06 -8.30398 3.36382 -0.490703 9.10774e-07 -29.344 -10.3302 27.1352 -8.8595 -0 -0 14.6236 -2.4087e-07 1.20198 5.50114 0.115201 -5.0489e-08 -48.2004 
13.025 87.188 -2.6335 4.53279 34.4404 19.9095 0 -0 0 4.72295 -15.0094 -7.32602 29.1376 -13.9928 0.000162256 47.3453 -2.92742 19.821 -1.38303e-06 75.9133 -1.07888e-06 3.82135 -1.79518 -0.0599004 -21.6198 10.9758 -6.39565e-05 -25.7045 -5.30353 4.33811 1.22209e-06 -80.7905 -1.43622e-06 9.03805 0.7975 0.0629992 -1.21904 -9.10596 -1.44711 8.22838 -9.56773 -36.0159 -0 -0 18.0053 1.75603e-06 -8.9903 3.45808 -0.546797 2.25849e-06 -29.1965 -10.4755 27.1607 -8.65969 -0 -0 14.9161 1.80039e-06 1.19096 5.70173 0.118301 1.7442e-07 -49.1132 
13.508 87.119 -2.2296 4.68658 33.803 20.1308 0 -0 0 4.99586 -15.1702 -7.44389 29.0486 -14.1235 -1.14027e-05 47.4143 -3.15716 19.3057 -2.34616e-06 76.1868 -2.50355e-06 3.94549 -1.71346 -0.058998 -21.6033 11.0495 -1.00223e-05 -25.5559 -5.20742 3.60686 0 -81.2295 0 9.10731 0.834199 0.0663989 -1.78389 -8.67832 -1.78737 8.73965 -9.26024 -36.0793 -0 -0 16.8704 2.61065e-06 -9.72588 3.53063 -0.604709 -5.14974e-06 -29.1144 -10.6242 27.1424 -8.47985 -0 -0 15.2283 -1.48626e-06 1.16307 5.92462 0.120101 -2.32266e-07 -50.0017 
13.999 87.044 -1.8106 4.86108 33.211 20.3759 0 -0 0 5.2692 -15.3488 -7.60496 28.9613 -14.2543 7.2494e-05 47.4469 -3.40666 18.8309 -1.12906e-06 76.4663 -1.43304e-06 4.0231 -1.61525 -0.0567002 -21.5892 11.1168 1.26625e-05 -25.472 -5.07673 2.91882 0 -81.6721 0 9.18305 0.850596 0.0683013 -2.35073 -8.26775 -2.08769 9.22532 -8.97967 -36.1293 -0 -0 15.8006 4.02938e-06 -10.4532 3.58312 -0.660599 -4.63706e-06 -29.1143 -10.7757 27.088 -8.31133 -0 -0 15.5635 2.20825e-07 1.1167 6.15761 0.119799 2.06448e-07 -50.879 
14.498 86.962 -1.3744 5.05928 32.6627 20.6361 0 -0 0 5.53366 -15.5483 -7.79738 28.8736 -14.3886 5.32831e-05 47.45 -3.66741 18.3984 -1.45986e-06 76.7487 -1.15598e-06 4.05166 -1.50907 -0.0533984 -21.5686 11.1869 -7.0921e-05 -25.4559 -4.92557 2.27963 -2.34308e-06 -82.105 2.04051e-06 9.26166 0.850196 0.0688992 -2.91442 -7.87213 -2.34836 9.67583 -8.72364 -36.1507 -0 -0 14.7935 -5.07282e-06 -11.1171 3.62464 -0.711696 -1.134e-06 -29.1959 -10.9288 27.0067 -8.14342 -0 -0 15.9222 -2.3499e-07 1.04569 6.3895 0.1164 2.46143e-08 -51.7679 
15.007 86.87 -0.9186 5.28668 32.1573 20.9052 0 -0 0 5.77808 -15.772 -8.0088 28.787 -14.5195 0.000180621 47.4323 -3.94348 17.999 -1.18356e-06 77.0205 -1.48737e-06 4.04137 -1.40382 -0.0495019 -21.5284 11.245 8.93413e-05 -25.517 -4.73 1.68577 0 -82.5332 0 9.33851 0.837895 0.068401 -3.46977 -7.49079 -2.57052 10.0798 -8.49179 -36.1292 -0 -0 13.8465 -3.23521e-06 -11.6686 3.66673 -0.756698 1.91334e-06 -29.3356 -11.0829 26.9079 -7.96345 -0 -0 16.3027 1.6154e-07 0.943302 6.61072 0.108598 3.10463e-07 -52.6926 
15.527 86.767 -0.4412 5.54627 31.698 21.1752 0 -0 0 5.99491 -16.0245 -8.22627 28.7008 -14.6537 5.63208e-05 47.403 -4.2216 17.6321 -1.07087e-06 77.2805 -8.56097e-07 4.00193 -1.30558 -0.0455982 -21.4686 11.2978 5.8816e-05 -25.6547 -4.50303 1.14269 1.74953e-06 -82.9669 -2.30082e-06 9.41147 0.821795 0.0676006 -4.01377 -7.12323 -2.76098 10.4221 -8.27573 -36.0457 -0 -0 12.949 -5.6951e-06 -12.0781 3.72579 -0.7966 -5.87328e-06 -29.4838 -11.2352 26.8 -7.76056 -0 -0 16.7081 -1.09137e-06 0.798899 6.81591 0.0948009 3.51177e-07 -53.68 
